<?xml version="1.0" standalone="no"?>
<!DOCTYPE svg PUBLIC "-//W3C//DTD SVG 20010904//EN"
 "http://www.w3.org/TR/2001/REC-SVG-20010904/DTD/svg10.dtd">
<svg version="1.0" xmlns="http://www.w3.org/2000/svg"
 width="512.000000pt" height="512.000000pt" viewBox="0 0 512.000000 512.000000"
 preserveAspectRatio="xMidYMid meet">
<metadata>
Created by potrace 1.14, written by Peter Selinger 2001-2017
</metadata>
<g transform="translate(0.000000,512.000000) scale(0.100000,-0.100000)"
fill="#000000" stroke="none">
<path d="M3608 3564 c-88 -21 -176 -70 -240 -135 -119 -118 -123 -145 -123
-814 0 -486 2 -535 18 -590 41 -134 123 -231 243 -287 174 -81 362 -50 456 76
l33 44 21 -62 21 -61 151 -3 152 -3 0 486 0 485 -280 0 -280 0 0 -135 0 -135
50 0 50 0 0 -152 c-1 -222 -18 -278 -87 -278 -49 0 -70 27 -78 102 -9 89 -2
1119 8 1140 5 9 22 21 38 27 39 13 76 -1 89 -34 6 -15 10 -100 10 -191 l0
-164 241 0 241 0 -7 123 c-8 156 -20 234 -46 303 -42 112 -191 223 -346 258
-88 20 -256 20 -335 0z"/>
<path d="M780 2636 l0 -906 363 0 c199 0 395 5 436 10 162 21 252 97 282 237
14 70 23 855 11 1083 -8 159 -14 206 -32 252 -39 103 -138 179 -270 208 -34 8
-194 14 -422 17 l-368 5 0 -906z m568 588 c51 -14 52 -23 52 -571 0 -320 -4
-522 -10 -545 -12 -43 -31 -56 -95 -64 l-45 -7 0 597 0 596 38 0 c20 0 47 -3
60 -6z"/>
<path d="M2634 3212 c-38 -18 -76 -47 -103 -78 l-42 -49 7 68 6 67 -231 0
-231 0 0 -745 0 -745 225 0 224 0 3 604 c3 578 4 605 22 625 23 26 78 28 97 4
12 -13 15 -127 17 -625 l3 -608 225 0 225 0 -3 648 -3 647 -23 50 c-28 60 -73
109 -127 138 -30 16 -63 22 -135 24 -88 4 -99 2 -156 -25z"/>
</g>
</svg>
